<svg xmlns="http://www.w3.org/2000/svg" width="1400" height="420" viewBox="0 0 1400 420">
  <defs>
    <linearGradient id="bg" x1="0" y1="0" x2="1" y2="1">
      <stop offset="0" stop-color="#07090c"/>
      <stop offset="0.55" stop-color="#11151b"/>
      <stop offset="1" stop-color="#08090c"/>
    </linearGradient>
    <linearGradient id="red" x1="0" y1="0" x2="1" y2="1">
      <stop offset="0" stop-color="#ff2a32"/>
      <stop offset="1" stop-color="#b80008"/>
    </linearGradient>
    <filter id="glow"><feGaussianBlur stdDeviation="10" result="b"/><feMerge><feMergeNode in="b"/><feMergeNode in="SourceGraphic"/></feMerge></filter>
  </defs>
  <rect width="1400" height="420" rx="28" fill="url(#bg)"/>
  <circle cx="1170" cy="40" r="250" fill="#ed010b" opacity=".06"/>
  <circle cx="1280" cy="340" r="190" fill="#ed010b" opacity=".045"/>
  <g opacity=".16" stroke="#ed010b">
    <path d="M980 70h330M1040 115h270M1000 160h310M1080 205h230M1020 250h290M1100 295h210"/>
    <path d="M1060 20v350M1120 20v350M1180 20v350M1240 20v350M1300 20v350"/>
  </g>
  <g transform="translate(85 76)">
    <path d="M20 0h92L67 45l45 45H77L51 64 25 90H0l45-45L20 20z" fill="url(#red)" filter="url(#glow)"/>
    <path d="M112 0h55l-50 50 50 40h-55L67 45z" fill="#d8dde5" opacity=".92"/>
  </g>
  <text x="275" y="120" font-family="Arial,Helvetica,sans-serif" font-size="54" font-weight="800" fill="#ffffff">KMJ TECHNO</text>
  <text x="278" y="162" font-family="Arial,Helvetica,sans-serif" font-size="18" letter-spacing="7" fill="#b8bec8">INNOVATE · BUILD · SCALE</text>
  <text x="85" y="245" font-family="Arial,Helvetica,sans-serif" font-size="38" font-weight="700" fill="#ffffff">Narendra Singh Kushwah</text>
  <text x="85" y="286" font-family="Arial,Helvetica,sans-serif" font-size="23" fill="#ff3940">Founder &amp; CTO · KMJ TECHNO</text>
  <text x="85" y="332" font-family="Arial,Helvetica,sans-serif" font-size="21" fill="#c8ced8">AI Infrastructure · Autonomous Engineering · Secure Remote Access · Developer Tools</text>
  <text x="85" y="374" font-family="Arial,Helvetica,sans-serif" font-size="18" fill="#8f98a7">Building controlled, verifiable systems for real-world engineering.</text>
</svg>